<?xml version="1.0" encoding="utf-8"?>
<!-- Generator: Adobe Illustrator 15.0.0, SVG Export Plug-In . SVG Version: 6.00 Build 0)  -->
<!DOCTYPE svg PUBLIC "-//W3C//DTD SVG 1.1//EN" "http://www.w3.org/Graphics/SVG/1.1/DTD/svg11.dtd">
<svg version="1.1" id="Layer_1" xmlns="http://www.w3.org/2000/svg" xmlns:xlink="http://www.w3.org/1999/xlink" x="0px" y="0px"
	 width="82px" height="81px" viewBox="0 0 82 81" enable-background="new 0 0 82 81" xml:space="preserve">
<g>
	<path d="M49.07,61.848c-1.18-6.173-2.728-11.655-4.439-16.453c-5.033,1.642-8.889,4.397-11.684,7.073
		c-2.712,2.598-4.417,5.112-5.213,6.42c3.741,2.777,8.353,4.432,13.356,4.432C43.9,63.319,46.587,62.795,49.07,61.848z"/>
	<path d="M21.073,35.419h0.005c0.114,0,0.23,0,0.349,0c4.134,0.001,10.97-0.473,17.755-2.494c-3.337-6.33-6.462-10.383-8.021-12.227
		c-5.847,2.894-10.269,8.24-11.883,14.693C19.779,35.407,20.376,35.419,21.073,35.419z"/>
	<path d="M36.312,18.892c1.951,2.498,4.803,6.58,7.756,12.291c4.203-1.805,8.093-4.359,11.039-7.887
		c-3.85-3.086-8.714-4.941-14.017-4.941C39.45,18.354,37.856,18.55,36.312,18.892z"/>
	<path d="M30.123,48.067c3.11-2.835,7.316-5.68,12.656-7.467c-0.428-1.029-0.858-2.021-1.294-2.975
		c-7.997,2.525-15.889,2.902-20.406,2.933h-0.006c-0.99,0-1.814-0.021-2.456-0.045c-0.005,0.11-0.009,0.22-0.009,0.323
		c0,5.512,2.007,10.546,5.314,14.462C25.105,53.496,27.127,50.795,30.123,48.067z"/>
	<path d="M41,4.308C21.012,4.308,4.808,20.512,4.808,40.5S21.012,76.692,41,76.692c19.987,0,36.191-16.204,36.191-36.192
		S60.988,4.308,41,4.308z M41.09,69.653c-15.916,0-28.816-12.902-28.816-28.816c0-15.916,12.9-28.815,28.816-28.816
		c15.915,0.001,28.816,12.9,28.817,28.816C69.907,56.751,57.005,69.653,41.09,69.653z"/>
	<path d="M46.308,35.822c0.508,1.12,1.01,2.285,1.506,3.502c2.04-0.362,4.207-0.571,6.514-0.571h0.021l0,0
		c2.866,0,5.938,0.336,9.193,1.025c-0.225-4.826-1.984-9.248-4.795-12.817C55.216,30.991,50.853,33.829,46.308,35.822z"/>
	<path d="M54.339,43.892h-0.002h-0.005h-0.057c-1.618,0-3.151,0.12-4.611,0.33c1.575,4.492,3.011,9.523,4.151,15.107
		c4.8-3.312,8.244-8.433,9.35-14.375C59.968,44.227,57.023,43.892,54.339,43.892z"/>
</g>
</svg>
