<?xml version="1.0" encoding="utf-8"?>
<!-- Generator: Adobe Illustrator 15.0.0, SVG Export Plug-In . SVG Version: 6.00 Build 0)  -->
<!DOCTYPE svg PUBLIC "-//W3C//DTD SVG 1.1//EN" "http://www.w3.org/Graphics/SVG/1.1/DTD/svg11.dtd">
<svg version="1.1" id="Layer_2" xmlns="http://www.w3.org/2000/svg" xmlns:xlink="http://www.w3.org/1999/xlink" x="0px" y="0px"
	 width="82px" height="81px" viewBox="0 0 82 81" enable-background="new 0 0 82 81" xml:space="preserve">
<path d="M41,4.69C21.223,4.69,5.191,20.724,5.191,40.5S21.223,76.31,41,76.31c19.777,0,35.81-16.033,35.81-35.81
	S60.777,4.69,41,4.69z M51.387,25.919c-1.939,0-4.033,0-5.026,0s-1.999,1.04-1.999,1.812s0,5.167,0,5.167s6.21,0,7.015,0
	c-0.28,3.963-0.859,7.588-0.859,7.588h-6.191v22.461h-9.225V40.485h-4.489v-7.559h4.489c0,0,0-5.05,0-6.181
	s-0.228-8.694,9.453-8.694c1.299,0,4.244,0,6.833,0C51.387,21.335,51.387,24.89,51.387,25.919z"/>
</svg>
