<?xml version="1.0" encoding="utf-8"?>
<!-- Generator: Adobe Illustrator 15.0.0, SVG Export Plug-In . SVG Version: 6.00 Build 0)  -->
<!DOCTYPE svg PUBLIC "-//W3C//DTD SVG 1.1//EN" "http://www.w3.org/Graphics/SVG/1.1/DTD/svg11.dtd">
<svg version="1.1" id="Layer_3" xmlns="http://www.w3.org/2000/svg" xmlns:xlink="http://www.w3.org/1999/xlink" x="0px" y="0px"
	 width="82px" height="81px" viewBox="0 0 82 81" enable-background="new 0 0 82 81" xml:space="preserve">
<g id="Layer_4">
	<g>
		<g>
			<path d="M41,4.69C21.223,4.69,5.192,20.724,5.192,40.5S21.223,76.31,41,76.31S76.809,60.276,76.809,40.5S60.778,4.69,41,4.69z
				 M33.327,55.307h-8.533V32.11h8.533V55.307z M29.037,29.754c-2.64,0-4.29-1.792-4.29-4.007c0-2.357,1.696-4.055,4.336-4.055
				c2.642,0,4.291,1.697,4.338,4.055C33.42,27.962,31.724,29.754,29.037,29.754z M59.254,55.307h-8.533V42.671
				c0-2.686-0.896-4.242-2.971-4.242c-1.65,0-2.403,1.131-2.781,2.027c-0.188,0.425-0.236,1.085-0.236,1.697v13.153H36.2V40.031
				c0-3.111-0.094-5.752-0.188-7.921h7.355l0.378,2.972h0.141c0.848-1.226,3.111-3.489,6.979-3.489c5.42,0,8.391,3.678,8.391,10.042
				V55.307z"/>
		</g>
	</g>
</g>
</svg>
