<?xml version="1.0" encoding="utf-8"?>
<!-- Generator: Adobe Illustrator 15.0.0, SVG Export Plug-In . SVG Version: 6.00 Build 0)  -->
<!DOCTYPE svg PUBLIC "-//W3C//DTD SVG 1.1//EN" "http://www.w3.org/Graphics/SVG/1.1/DTD/svg11.dtd">
<svg version="1.1" id="Layer_3" xmlns="http://www.w3.org/2000/svg" xmlns:xlink="http://www.w3.org/1999/xlink" x="0px" y="0px"
	 width="82px" height="81px" viewBox="0 0 82 81" enable-background="new 0 0 82 81" xml:space="preserve">
<g>
	<path d="M49.539,31.841H36.438v-4.418c0-1.214-0.431-2.252-1.294-3.118c-0.858-0.867-1.895-1.3-3.099-1.3
		c-1.241,0-2.292,0.426-3.153,1.274c-0.861,0.851-1.29,1.898-1.29,3.146v17.636c0,3.643,1.29,6.753,3.875,9.338
		c2.584,2.585,5.696,3.875,9.337,3.875h8.741c1.214,0,2.253-0.433,3.12-1.298c0.867-0.867,1.301-1.908,1.301-3.12
		c0-1.213-0.434-2.251-1.301-3.118c-0.867-0.865-1.909-1.3-3.122-1.3H40.81c-1.215,0-2.246-0.426-3.098-1.276
		c-0.851-0.853-1.274-1.887-1.274-3.104v-4.38h13.115c1.213,0,2.255-0.435,3.122-1.299c0.867-0.868,1.301-1.907,1.301-3.12
		s-0.434-2.252-1.304-3.118C51.8,32.273,50.757,31.841,49.539,31.841z"/>
	<path d="M41,4.785c-19.725,0-35.715,15.99-35.715,35.714c0,19.726,15.99,35.716,35.715,35.716c19.727,0,35.716-15.99,35.716-35.716
		C76.715,20.775,60.726,4.785,41,4.785z M55.83,47.583c1.707,1.705,2.608,3.874,2.608,6.273c0,2.402-0.901,4.573-2.608,6.276
		c-1.705,1.704-3.875,2.604-6.274,2.604h-8.741c-4.851,0-9.054-1.744-12.492-5.183c-3.439-3.439-5.184-7.641-5.184-12.493V27.426
		c0-2.443,0.906-4.63,2.621-6.324c1.698-1.675,3.872-2.561,6.286-2.561c2.401,0,4.569,0.907,6.261,2.615
		C39.994,22.85,40.89,25,40.9,27.378h8.639c2.402,0,4.574,0.899,6.279,2.599c1.715,1.704,2.62,3.877,2.62,6.282
		c0,2.399-0.901,4.57-2.61,6.278c-1.408,1.404-3.132,2.264-5.038,2.521C52.697,45.315,54.422,46.176,55.83,47.583z"/>
</g>
</svg>
